<svg width="30" height="30" viewBox="0 0 30 30" fill="none" xmlns="http://www.w3.org/2000/svg">
<path fill-rule="evenodd" clip-rule="evenodd" d="M0.667033 0.165716C0.31361 0.344101 0.00757431 0.814072 0.00757431 1.17843C0.00757431 1.54278 0.31361 2.01275 0.667033 2.19114L0.995363 2.35685H15.5377H25.9892L11.591 16.7742C-1.14782 29.53 0.125765 28.1342 0.0453376 28.4111C-0.203229 29.2676 0.612228 30.0838 1.46786 29.835C1.74454 29.7545 0.497217 31.1766 13.2413 18.426L27.6453 4.01453V14.4757V29.0113L27.8109 29.3399C27.9891 29.6937 28.4586 30 28.8227 30C29.1867 30 29.6562 29.6937 29.8344 29.3399L30 29.0113V12.9627V0.988701L29.8344 0.660067C29.7135 0.419962 29.5804 0.2868 29.3405 0.165716L29.0122 0H17.0492H0.995363L0.667033 0.165716Z" fill="white"/>
</svg>
