<svg width="36" height="36" viewBox="0 0 36 36" fill="none" xmlns="http://www.w3.org/2000/svg">
<rect x="0.5" y="0.5" width="35.0015" height="35" rx="7.5" transform="matrix(4.37114e-08 1 1 -4.37114e-08 2.18557e-08 1.55175e-06)" stroke="#E6EDF0"/>
<g clip-path="url(#clip0_400_475)">
<path fill-rule="evenodd" clip-rule="evenodd" d="M14.9799 10.71C15.7619 10.674 16.0113 10.666 18.0033 10.666C19.9953 10.666 20.2446 10.6747 21.0259 10.71C21.8073 10.7454 22.3406 10.87 22.8073 11.0507C23.2959 11.2354 23.7393 11.524 24.1059 11.8974C24.4793 12.2634 24.7673 12.706 24.9513 13.1954C25.1326 13.662 25.2566 14.1954 25.2926 14.9754C25.3286 15.7587 25.3366 16.008 25.3366 17.9994C25.3366 19.9914 25.3279 20.2407 25.2926 21.0227C25.2573 21.8027 25.1326 22.336 24.9513 22.8027C24.7672 23.2921 24.4788 23.7355 24.1059 24.102C23.7393 24.4754 23.2959 24.7634 22.8073 24.9474C22.3406 25.1287 21.8073 25.2527 21.0273 25.2887C20.2446 25.3247 19.9953 25.3327 18.0033 25.3327C16.0113 25.3327 15.7619 25.324 14.9799 25.2887C14.1999 25.2534 13.6666 25.1287 13.1999 24.9474C12.7105 24.7633 12.2671 24.4749 11.9006 24.102C11.5275 23.7358 11.2388 23.2926 11.0546 22.8034C10.8739 22.3367 10.7499 21.8034 10.7139 21.0234C10.6779 20.24 10.6699 19.9907 10.6699 17.9994C10.6699 16.0074 10.6786 15.758 10.7139 14.9767C10.7493 14.1954 10.8739 13.662 11.0546 13.1954C11.2391 12.7061 11.528 12.2629 11.9013 11.8967C12.2673 11.5237 12.7102 11.235 13.1993 11.0507C13.6659 10.87 14.1993 10.746 14.9793 10.71H14.9799ZM20.9666 12.03C20.1933 11.9947 19.9613 11.9874 18.0033 11.9874C16.0453 11.9874 15.8133 11.9947 15.0399 12.03C14.3246 12.0627 13.9366 12.182 13.6779 12.2827C13.3359 12.416 13.0913 12.574 12.8346 12.8307C12.5913 13.0674 12.404 13.3555 12.2866 13.674C12.1859 13.9327 12.0666 14.3207 12.0339 15.036C11.9986 15.8094 11.9913 16.0414 11.9913 17.9994C11.9913 19.9574 11.9986 20.1894 12.0339 20.9627C12.0666 21.678 12.1859 22.066 12.2866 22.3247C12.4039 22.6427 12.5913 22.9314 12.8346 23.168C13.0713 23.4114 13.3599 23.5987 13.6779 23.716C13.9366 23.8167 14.3246 23.936 15.0399 23.9687C15.8133 24.004 16.0446 24.0114 18.0033 24.0114C19.9619 24.0114 20.1933 24.004 20.9666 23.9687C21.6819 23.936 22.0699 23.8167 22.3286 23.716C22.6706 23.5827 22.9153 23.4247 23.1719 23.168C23.4153 22.9314 23.6026 22.6427 23.7199 22.3247C23.8206 22.066 23.9399 21.678 23.9726 20.9627C24.0079 20.1894 24.0153 19.9574 24.0153 17.9994C24.0153 16.0414 24.0079 15.8094 23.9726 15.036C23.9399 14.3207 23.8206 13.9327 23.7199 13.674C23.5866 13.332 23.4286 13.0874 23.1719 12.8307C22.9352 12.5874 22.6471 12.4002 22.3286 12.2827C22.0699 12.182 21.6819 12.0627 20.9666 12.03ZM17.0666 20.26C17.5897 20.4778 18.1722 20.5072 18.7145 20.3432C19.2569 20.1792 19.7255 19.832 20.0403 19.3608C20.3551 18.8897 20.4966 18.3239 20.4406 17.7601C20.3846 17.1962 20.1346 16.6693 19.7333 16.2694C19.4774 16.0137 19.1681 15.8179 18.8275 15.6961C18.4869 15.5743 18.1235 15.5296 17.7636 15.5651C17.4036 15.6006 17.056 15.7155 16.7458 15.9014C16.4356 16.0874 16.1704 16.3398 15.9695 16.6406C15.7685 16.9413 15.6367 17.2829 15.5836 17.6407C15.5305 17.9984 15.5574 18.3635 15.6623 18.7097C15.7672 19.0558 15.9476 19.3744 16.1904 19.6425C16.4332 19.9106 16.7325 20.1215 17.0666 20.26ZM15.3379 15.334C15.6879 14.984 16.1035 14.7064 16.5608 14.5169C17.0181 14.3275 17.5083 14.23 18.0033 14.23C18.4983 14.23 18.9884 14.3275 19.4457 14.5169C19.903 14.7064 20.3186 14.984 20.6686 15.334C21.0186 15.684 21.2963 16.0996 21.4857 16.5569C21.6751 17.0142 21.7726 17.5044 21.7726 17.9994C21.7726 18.4943 21.6751 18.9845 21.4857 19.4418C21.2963 19.8991 21.0186 20.3147 20.6686 20.6647C19.9617 21.3716 19.0029 21.7687 18.0033 21.7687C17.0036 21.7687 16.0448 21.3716 15.3379 20.6647C14.631 19.9578 14.2339 18.999 14.2339 17.9994C14.2339 16.9997 14.631 16.0409 15.3379 15.334ZM22.6086 14.7914C22.6953 14.7095 22.7648 14.6111 22.8128 14.502C22.8608 14.3929 22.8865 14.2752 22.8882 14.156C22.8899 14.0367 22.8677 13.9184 22.8229 13.8079C22.7781 13.6974 22.7115 13.597 22.6272 13.5127C22.5429 13.4284 22.4425 13.3619 22.332 13.317C22.2216 13.2722 22.1032 13.25 21.984 13.2517C21.8647 13.2535 21.7471 13.2791 21.6379 13.3271C21.5288 13.3752 21.4304 13.4446 21.3486 13.5314C21.1895 13.7 21.1023 13.9241 21.1057 14.156C21.1091 14.3878 21.2027 14.6093 21.3667 14.7732C21.5307 14.9372 21.7521 15.0308 21.984 15.0342C22.2158 15.0376 22.4399 14.9505 22.6086 14.7914Z" fill="white"/>
</g>
<defs>
<clipPath id="clip0_400_475">
<rect width="16" height="16" fill="white" transform="translate(10 10)"/>
</clipPath>
</defs>
</svg>
