<svg width="16" height="16" viewBox="0 0 16 16" fill="none" xmlns="http://www.w3.org/2000/svg">
<g clip-path="url(#clip0_400_498)">
<path fill-rule="evenodd" clip-rule="evenodd" d="M4.97992 0.710016C5.76192 0.674016 6.01125 0.666016 8.00325 0.666016C9.99525 0.666016 10.2446 0.674682 11.0259 0.710016C11.8073 0.745349 12.3406 0.870016 12.8073 1.05068C13.2959 1.23535 13.7393 1.52402 14.1059 1.89735C14.4793 2.26335 14.7673 2.70602 14.9513 3.19535C15.1326 3.66202 15.2566 4.19535 15.2926 4.97535C15.3286 5.75868 15.3366 6.00802 15.3366 7.99935C15.3366 9.99135 15.3279 10.2407 15.2926 11.0227C15.2573 11.8027 15.1326 12.336 14.9513 12.8027C14.7672 13.2921 14.4788 13.7355 14.1059 14.102C13.7393 14.4753 13.2959 14.7633 12.8073 14.9473C12.3406 15.1287 11.8073 15.2527 11.0273 15.2887C10.2446 15.3247 9.99525 15.3327 8.00325 15.3327C6.01125 15.3327 5.76192 15.324 4.97992 15.2887C4.19992 15.2533 3.66659 15.1287 3.19992 14.9473C2.71054 14.7633 2.26714 14.4749 1.90059 14.102C1.52751 13.7358 1.2388 13.2926 1.05459 12.8033C0.873922 12.3367 0.749922 11.8033 0.713922 11.0233C0.677922 10.24 0.669922 9.99068 0.669922 7.99935C0.669922 6.00735 0.678589 5.75802 0.713922 4.97668C0.749255 4.19535 0.873922 3.66202 1.05459 3.19535C1.23907 2.70607 1.528 2.26289 1.90125 1.89668C2.26728 1.52368 2.71024 1.23498 3.19925 1.05068C3.66592 0.870016 4.19925 0.746016 4.97925 0.710016H4.97992ZM10.9666 2.03002C10.1933 1.99468 9.96125 1.98735 8.00325 1.98735C6.04525 1.98735 5.81325 1.99468 5.03992 2.03002C4.32459 2.06268 3.93659 2.18202 3.67792 2.28268C3.33592 2.41602 3.09125 2.57402 2.83459 2.83068C2.59128 3.06738 2.40404 3.35554 2.28659 3.67402C2.18592 3.93268 2.06659 4.32068 2.03392 5.03602C1.99859 5.80935 1.99125 6.04135 1.99125 7.99935C1.99125 9.95735 1.99859 10.1893 2.03392 10.9627C2.06659 11.678 2.18592 12.066 2.28659 12.3247C2.40392 12.6427 2.59125 12.9313 2.83459 13.168C3.07125 13.4113 3.35992 13.5987 3.67792 13.716C3.93659 13.8167 4.32459 13.936 5.03992 13.9687C5.81325 14.004 6.04459 14.0113 8.00325 14.0113C9.96192 14.0113 10.1933 14.004 10.9666 13.9687C11.6819 13.936 12.0699 13.8167 12.3286 13.716C12.6706 13.5827 12.9153 13.4247 13.1719 13.168C13.4153 12.9313 13.6026 12.6427 13.7199 12.3247C13.8206 12.066 13.9399 11.678 13.9726 10.9627C14.0079 10.1893 14.0153 9.95735 14.0153 7.99935C14.0153 6.04135 14.0079 5.80935 13.9726 5.03602C13.9399 4.32068 13.8206 3.93268 13.7199 3.67402C13.5866 3.33202 13.4286 3.08735 13.1719 2.83068C12.9352 2.5874 12.6471 2.40016 12.3286 2.28268C12.0699 2.18202 11.6819 2.06268 10.9666 2.03002ZM7.06659 10.26C7.58969 10.4778 8.17217 10.5072 8.71454 10.3432C9.25691 10.1792 9.72551 9.83196 10.0403 9.36084C10.3551 8.88973 10.4966 8.32393 10.4406 7.76009C10.3846 7.19624 10.1346 6.66933 9.73325 6.26935C9.47741 6.01367 9.16806 5.81789 8.82748 5.69611C8.48689 5.57434 8.12354 5.52959 7.76358 5.56509C7.40363 5.6006 7.05602 5.71547 6.74579 5.90144C6.43556 6.0874 6.17042 6.33985 5.96946 6.64058C5.7685 6.94132 5.63671 7.28288 5.5836 7.64066C5.53048 7.99844 5.55735 8.36354 5.66228 8.70969C5.76721 9.05584 5.94757 9.37442 6.1904 9.6425C6.43323 9.91057 6.73247 10.1215 7.06659 10.26ZM5.33792 5.33402C5.68794 4.984 6.10347 4.70635 6.56079 4.51692C7.0181 4.3275 7.50826 4.23 8.00325 4.23C8.49825 4.23 8.9884 4.3275 9.44572 4.51692C9.90304 4.70635 10.3186 4.984 10.6686 5.33402C11.0186 5.68403 11.2963 6.09956 11.4857 6.55688C11.6751 7.0142 11.7726 7.50435 11.7726 7.99935C11.7726 8.49435 11.6751 8.9845 11.4857 9.44182C11.2963 9.89914 11.0186 10.3147 10.6686 10.6647C9.9617 11.3716 9.00295 11.7687 8.00325 11.7687C7.00356 11.7687 6.04481 11.3716 5.33792 10.6647C4.63103 9.95779 4.2339 8.99904 4.2339 7.99935C4.2339 6.99966 4.63103 6.04091 5.33792 5.33402ZM12.6086 4.79135C12.6953 4.70953 12.7648 4.61114 12.8128 4.502C12.8608 4.39286 12.8865 4.27519 12.8882 4.15597C12.8899 4.03674 12.8677 3.91838 12.8229 3.80789C12.7781 3.6974 12.7115 3.59702 12.6272 3.51271C12.5429 3.42839 12.4425 3.36185 12.332 3.31703C12.2216 3.2722 12.1032 3.25 11.984 3.25174C11.8647 3.25348 11.7471 3.27912 11.6379 3.32715C11.5288 3.37517 11.4304 3.44461 11.3486 3.53135C11.1895 3.70004 11.1023 3.9241 11.1057 4.15597C11.1091 4.38784 11.2027 4.60927 11.3667 4.77324C11.5307 4.93722 11.7521 5.03083 11.984 5.03421C12.2158 5.0376 12.4399 4.95048 12.6086 4.79135Z" fill="white"/>
</g>
<defs>
<clipPath id="clip0_400_498">
<rect width="16" height="16" fill="white"/>
</clipPath>
</defs>
</svg>
