<svg width="36" height="36" viewBox="0 0 36 36" fill="none" xmlns="http://www.w3.org/2000/svg">
<rect x="0.5" y="0.5" width="35.0015" height="35" rx="7.5" transform="matrix(4.37114e-08 1 1 -4.37114e-08 2.18557e-08 1.55175e-06)" stroke="#E6EDF0"/>
<path d="M13.3239 14.7982C14.1295 14.7982 14.7826 14.1451 14.7826 13.3395C14.7826 12.5339 14.1295 11.8809 13.3239 11.8809C12.5183 11.8809 11.8652 12.5339 11.8652 13.3395C11.8652 14.1451 12.5183 14.7982 13.3239 14.7982Z" fill="white"/>
<path d="M16.1572 15.9041V23.9968H18.6698V19.9948C18.6698 18.9388 18.8685 17.9161 20.1778 17.9161C21.4692 17.9161 21.4852 19.1234 21.4852 20.0614V23.9974H23.9992V19.5594C23.9992 17.3794 23.5298 15.7041 20.9818 15.7041C19.7585 15.7041 18.9385 16.3754 18.6032 17.0108H18.5692V15.9041H16.1572ZM12.0625 15.9041H14.5792V23.9968H12.0625V15.9041Z" fill="white"/>
</svg>
