<svg width="16" height="16" viewBox="0 0 16 16" fill="none" xmlns="http://www.w3.org/2000/svg">
<path d="M3.3239 4.79819C4.1295 4.79819 4.78257 4.14513 4.78257 3.33953C4.78257 2.53393 4.1295 1.88086 3.3239 1.88086C2.5183 1.88086 1.86523 2.53393 1.86523 3.33953C1.86523 4.14513 2.5183 4.79819 3.3239 4.79819Z" fill="white"/>
<path d="M6.15717 5.9041V13.9968H8.66983V9.99477C8.66983 8.93877 8.8685 7.9161 10.1778 7.9161C11.4692 7.9161 11.4852 9.12343 11.4852 10.0614V13.9974H13.9992V9.55944C13.9992 7.37944 13.5298 5.7041 10.9818 5.7041C9.7585 5.7041 8.9385 6.37543 8.60317 7.01077H8.56917V5.9041H6.15717ZM2.0625 5.9041H4.57917V13.9968H2.0625V5.9041Z" fill="white"/>
</svg>
