<svg width="36" height="36" viewBox="0 0 36 36" fill="none" xmlns="http://www.w3.org/2000/svg">
<rect x="0.5" y="0.5" width="35.0015" height="35" rx="7.5" transform="matrix(4.37114e-08 1 1 -4.37114e-08 2.18557e-08 1.55175e-06)" stroke="#E6EDF0"/>
<path d="M23.779 12.4789L11.959 17.0369C11.1523 17.3609 11.157 17.8109 11.811 18.0115L14.8457 18.9582L21.867 14.5282C22.199 14.3262 22.5023 14.4349 22.253 14.6562L16.5643 19.7902H16.563L16.5643 19.7909L16.355 22.9189C16.6617 22.9189 16.797 22.7782 16.969 22.6122L18.443 21.1789L21.509 23.4435C22.0743 23.7549 22.4803 23.5949 22.621 22.9202L24.6337 13.4349C24.8397 12.6089 24.3183 12.2349 23.779 12.4789Z" fill="white"/>
</svg>
